<svg width="466" height="550" viewBox="0 0 466 550" fill="none" xmlns="http://www.w3.org/2000/svg">
<path d="M26.4829 130.796V48.0809C26.4829 48.0809 86.5108 21.4847 166.087 28.0641V106.583C166.087 106.46 101.111 109.091 26.4829 130.796Z" fill="#E4EFF4"/>
<path d="M26.4829 130.796V48.0809C26.4829 48.0809 86.5108 21.4847 166.087 28.0641V106.583C166.087 106.46 101.111 109.091 26.4829 130.796Z" fill="#0B113A" fill-opacity="0.69"/>
<path d="M34.925 118.825C34.7866 118.825 34.6655 118.825 34.5272 118.701C34.3888 118.577 34.2504 118.454 34.2504 118.221V58.4184C34.2504 58.0469 34.5272 57.8147 34.925 57.8147C35.3229 57.8147 35.5997 58.0469 35.5997 58.4184V117.494C44.0417 115.11 115.176 95.8049 156.157 93.6531V35.7543C156.157 35.3982 156.434 35.166 156.832 35.166C157.23 35.166 157.506 35.3982 157.506 35.7543V94.133C157.506 94.489 157.23 94.7212 156.97 94.7212C113.826 96.8886 36.136 118.577 35.3229 118.825C35.0634 118.825 34.925 118.825 34.925 118.825Z" fill="#AAC7D1"/>
<path d="M87.9814 99.8288C87.7046 99.8288 87.5662 99.7049 87.4451 99.5811L58.3653 60.9871L40.2877 85.5553C40.1494 85.803 39.7515 85.9114 39.3536 85.6792C39.0768 85.5553 38.9384 85.1993 39.2152 84.8432L57.829 59.5473C57.9674 59.4235 58.1058 59.3151 58.3653 59.3151C58.6421 59.3151 58.7632 59.4235 58.9016 59.5473L87.9814 98.0175L110.09 63.5105C110.211 63.3866 110.349 63.2628 110.609 63.2628C110.747 63.2628 111.024 63.2628 111.145 63.5105L124.552 78.0006L147.594 42.5338C147.732 42.2861 148.13 42.1777 148.39 42.2861C148.667 42.4099 148.805 42.766 148.667 43.0137L125.226 79.2082C125.088 79.332 124.95 79.4404 124.69 79.4404C124.413 79.4404 124.275 79.332 124.154 79.2082L110.747 64.7025L88.6387 99.3489C88.3793 99.7049 88.2409 99.8288 87.9814 99.8288Z" fill="#AAC7D1"/>
<path d="M60.3719 90.1736C46.4462 90.1736 40.4261 65.7291 40.2877 64.7693C40.1493 64.3978 40.4261 64.1656 40.824 64.0417C41.2218 64.0417 41.4813 64.1656 41.6197 64.5216C41.6197 64.7693 47.7782 89.9259 61.3234 89.0899C69.0907 88.61 72.4294 81.4268 75.526 75.0642C77.7921 70.2805 79.7988 66.0852 83.5527 65.9614C86.7704 65.8375 88.6387 68.4847 90.6627 71.4726C94.0014 76.1478 98.0321 82.0151 109.674 80.1109C122.268 77.9436 124.413 68.3609 125.884 62.0137C126.558 58.7627 127.095 56.3786 128.963 56.0071C131.108 55.651 132.717 57.8184 134.723 60.6823C137.82 64.8777 141.557 70.1567 148.528 69.6768C148.926 69.6768 149.203 69.909 149.203 70.1567C149.203 70.5128 148.926 70.7604 148.667 70.7604C141.02 71.2404 136.747 65.4814 133.789 61.2861C132.059 58.8866 130.572 56.9669 129.378 57.2146C128.427 57.4468 127.89 59.8464 127.233 62.3698C125.884 68.5931 123.479 79.1511 110.09 81.4268C97.6169 83.5787 93.0672 76.9838 89.7112 72.3085C87.7045 69.5529 86.2341 67.2772 83.8295 67.2772C83.8295 67.2772 83.8295 67.2772 83.6911 67.2772C80.8714 67.2772 79.0031 71.2404 76.858 75.6679C73.9171 81.9067 70.1632 89.8175 61.5829 90.2974C60.9082 90.1736 60.6487 90.1736 60.3719 90.1736Z" fill="#AAC7D1"/>
<path d="M61.7213 59.9205C61.7213 58.2485 60.2509 57.041 58.5036 57.041C56.6353 57.041 55.286 58.3724 55.286 59.9205C55.286 61.6079 56.7564 62.7999 58.5036 62.7999C60.2509 62.7999 61.7213 61.484 61.7213 59.9205Z" fill="#AAC7D1"/>
<path d="M43.0901 84.3677C43.0901 82.6803 41.6197 81.4883 39.8898 81.4883C38.1425 81.4883 36.6721 82.8042 36.6721 84.3677C36.6721 86.0397 38.1425 87.2472 39.8898 87.2472C41.6197 87.2472 43.0901 85.9158 43.0901 84.3677Z" fill="#AAC7D1"/>
<path d="M90.9222 99.1646C90.9222 97.4772 89.4518 96.2852 87.7046 96.2852C85.8363 96.2852 84.4869 97.601 84.4869 99.1646C84.4869 100.837 85.9747 102.044 87.7046 102.044C89.4518 102.152 90.9222 100.837 90.9222 99.1646Z" fill="#AAC7D1"/>
<path d="M113.826 63.9947C113.826 62.3073 112.356 61.1152 110.609 61.1152C108.74 61.1152 107.408 62.4311 107.408 63.9947C107.408 65.6666 108.879 66.8587 110.609 66.8587C112.356 66.9825 113.826 65.6666 113.826 63.9947Z" fill="#AAC7D1"/>
<path d="M128.029 78.3484C128.029 76.6764 126.558 75.4844 124.811 75.4844C122.943 75.4844 121.611 76.8003 121.611 78.3484C121.611 80.0358 123.081 81.2278 124.811 81.2278C126.558 81.2278 128.029 79.9119 128.029 78.3484Z" fill="#AAC7D1"/>
<mask id="mask0_181_118" style="mask-type:luminance" maskUnits="userSpaceOnUse" x="0" y="150" width="114" height="139">
<path d="M0.101807 150.115H113.342V288.825H0.101807V150.115Z" fill="white"/>
</mask>
<g mask="url(#mask0_181_118)">
<path d="M19.3903 286.563V266.066C19.3903 266.066 61.4444 231.079 111.819 231.079V151.615C111.819 151.615 8.80325 160.842 0.101807 190.689V271.345C0.222897 271.469 4.51308 286.81 19.3903 286.563Z" fill="#E4EFF4"/>
</g>
<mask id="mask1_181_118" style="mask-type:luminance" maskUnits="userSpaceOnUse" x="0" y="150" width="114" height="120">
<path d="M0.101807 150.115H113.342V269.009H0.101807V150.115Z" fill="white"/>
</mask>
<g mask="url(#mask1_181_118)">
<path d="M0.2229 190.689C7.73071 200.876 19.5114 200.504 19.5114 200.504V266.066C19.5114 266.066 61.5828 231.079 111.958 231.079V151.615C111.958 151.615 8.80326 160.842 0.2229 190.689Z" fill="#0B113A" fill-opacity="0.69"/>
</g>
<path d="M20.584 224.416C20.3245 224.416 20.1861 224.307 20.0477 224.06C19.9266 223.827 20.0477 223.456 20.3245 223.347C20.7224 223.224 56.7564 206.086 88.5176 200.327C88.9154 200.203 89.1749 200.451 89.3133 200.807C89.4517 201.163 89.1749 201.411 88.7771 201.535C57.1716 207.17 21.2586 224.307 20.9992 224.416C20.7224 224.416 20.584 224.416 20.584 224.416Z" fill="#AAC7D1"/>
<path d="M20.584 234.949C20.3245 234.949 20.1861 234.825 20.0477 234.701C19.9266 234.469 20.0477 234.113 20.3245 233.989C20.7224 233.865 56.099 216.372 88.5176 208.693C88.9154 208.569 89.1749 208.817 89.3133 209.049C89.4517 209.421 89.1749 209.653 88.9154 209.777C56.7564 217.44 21.397 234.825 21.1203 235.057C20.7224 234.825 20.584 234.949 20.584 234.949Z" fill="#AAC7D1"/>
<path d="M20.584 245.218C20.3245 245.218 20.1861 245.094 20.0477 244.97C19.9266 244.738 19.9266 244.367 20.3245 244.134C20.584 244.011 42.0176 232.508 63.1917 225.433C63.4685 225.31 63.8664 225.433 64.0047 225.789C64.1258 226.037 64.0047 226.393 63.5896 226.517C42.4328 233.7 21.1203 245.094 20.8608 245.218C20.7224 245.218 20.584 245.218 20.584 245.218Z" fill="#AAC7D1"/>
<path d="M6.51983 196.386C6.39873 196.386 6.12195 196.262 5.98355 196.138C5.72407 195.906 5.72407 195.55 5.98355 195.302C6.12195 195.178 21.1203 183.552 37.3295 178.877C37.6063 178.769 38.0042 179.001 38.1426 179.248C38.281 179.481 38.0042 179.837 37.7447 179.961C21.6565 184.512 6.91771 196.03 6.79661 196.138C6.91771 196.386 6.79661 196.386 6.51983 196.386Z" fill="#AAC7D1"/>
<path d="M16.9685 200.381C16.8474 200.381 16.5706 200.273 16.4322 200.149C16.1728 199.901 16.3111 199.545 16.5706 199.313C16.709 199.189 27.4172 191.155 43.3669 186.603C43.7648 186.48 44.0416 186.727 44.1627 186.959C44.3011 187.207 44.0416 187.563 43.7648 187.687C28.0918 192.115 17.5048 200.149 17.3837 200.149C17.2453 200.381 17.1069 200.381 16.9685 200.381Z" fill="#AAC7D1"/>
<path d="M51.9474 202.494V174.814C51.9474 174.814 75.5261 167.259 97.4959 165.34V191.596C97.4959 191.596 71.0975 193.035 51.9474 202.494Z" fill="white"/>
<path d="M52.3451 194.621C52.2067 194.621 52.0683 194.621 51.9472 194.513C51.6704 194.265 51.6704 193.909 51.9472 193.661L66.6688 179.883C66.9455 179.651 67.3434 179.651 67.6202 179.883C67.8797 180.131 67.8797 180.487 67.6202 180.719L52.8814 194.513C52.743 194.513 52.4835 194.621 52.3451 194.621Z" fill="#AAC7D1"/>
<path d="M96.8211 183.186C96.6827 183.186 96.5443 183.186 96.5443 183.062L83.8295 177.071C83.5527 176.947 83.4143 176.591 83.5527 176.359C83.6911 176.111 84.089 175.987 84.3658 176.111L97.0806 182.102C97.3574 182.226 97.4958 182.582 97.3574 182.83C97.3574 183.062 97.0806 183.186 96.8211 183.186Z" fill="#AAC7D1"/>
<path d="M76.7195 182.52H76.5811L52.4835 176.529C52.0683 176.421 51.9472 176.173 52.0683 175.817C52.2067 175.461 52.4835 175.337 52.8814 175.461L76.5811 181.328L97.219 167.179C97.4958 166.947 97.8936 167.07 98.1531 167.303C98.4299 167.55 98.2915 167.906 98.032 168.139L77.1174 182.52C77.1174 182.52 76.9963 182.52 76.7195 182.52Z" fill="#AAC7D1"/>
<path d="M103.516 165.381C103.516 162.378 100.835 159.979 97.4959 159.979C94.1399 159.979 91.4585 162.378 91.4585 165.381C91.4585 168.369 94.1399 170.769 97.4959 170.769C100.835 170.769 103.516 168.369 103.516 165.381Z" fill="#E05353"/>
<path d="M185.635 498.172L181.76 521.656C181.76 521.656 167.678 533.995 165.55 539.274C163.267 544.553 166.087 552.696 183.766 547.664C199.163 543.237 226.236 529.691 232.654 526.456C233.605 525.976 234.262 525.14 234.401 524.288L238.016 508.838L185.635 498.172Z" fill="#4374AF"/>
<path d="M182.694 515.574C182.694 515.574 189.665 527.324 225.163 508.856L211.635 503.221L185.635 497.957L182.694 515.574Z" fill="#FFBE9D"/>
<path d="M146.521 444.538L158.838 461.071C158.838 461.071 153.891 483.72 160.049 487.203C166.208 490.687 172.782 484.804 172.782 484.804L200.114 442.618V417.322L146.521 444.538Z" fill="#4374AF"/>
<path d="M156.157 457.391C156.157 457.391 181.881 443.845 183.369 427.188L175.048 430.067L146.66 444.573L156.157 457.391Z" fill="#FFBE9D"/>
<path d="M232.792 294.913C232.792 294.913 211.359 372.225 207.743 385.167C204.128 398.109 183.49 485.128 183.49 485.128C183.49 485.128 178.006 486.32 177.729 493.395C177.47 500.469 185.635 500.469 185.635 500.469L240.975 512.575C240.975 512.575 248.067 511.492 249.14 507.529C250.074 503.581 245.663 498.302 245.663 498.302L305.933 273.209L232.792 294.913Z" fill="black"/>
<path d="M147.456 446.617L203.73 417.853C203.73 417.853 202.778 408.147 190.997 407.078L154.029 343.188L115.435 291.652C115.435 291.652 89.3134 305.43 87.445 339.705C85.5594 373.996 136.332 434.402 136.332 434.402C136.332 434.402 130.451 438.954 134.066 443.861C137.543 448.908 147.456 446.617 147.456 446.617Z" fill="black"/>
<path d="M232.792 294.853L154.029 343.153L115.314 291.617L164.201 261.414L226.893 277.468L232.792 294.853Z" fill="black"/>
<path d="M186.033 252.623L164.201 261.37L232.792 294.809L298.044 302.116L310.5 257.654L186.033 252.623Z" fill="black"/>
<path d="M234.937 496.483C234.799 496.483 234.678 496.483 234.539 496.359C234.003 496.127 233.726 495.647 234.003 495.167C236.684 488.928 297.629 266.358 298.304 264.083C298.442 263.603 298.978 263.247 299.515 263.37C300.051 263.479 300.449 263.959 300.31 264.439C297.767 273.665 238.691 489.408 236.01 495.771C235.75 496.25 235.335 496.483 234.937 496.483Z" fill="#C1610A"/>
<path d="M291.471 131.027L316.122 138.226C316.122 138.226 326.173 141.818 327.107 142.297C328.041 142.654 333.542 149.125 335.41 154.156C337.417 159.187 352.156 207.968 352.156 207.968C352.156 207.968 351.222 211.683 346.672 211.327L293.892 216.606L284.378 168.909L291.471 131.027Z" fill="#4374AF"/>
<path d="M196.36 138.963L149.341 194.106L206.273 212.312L196.36 138.963Z" fill="#4374AF"/>
<path d="M229.99 130.418L196.36 138.917L199.301 233.97H300.31L316.122 138.328L288.132 130.17L229.99 130.418Z" fill="#4374AF"/>
<path d="M293.218 211.696C292.682 211.696 292.284 211.34 292.145 210.984L285.71 173.953C285.572 173.474 285.987 172.994 286.523 172.87C287.059 172.746 287.596 173.117 287.717 173.582L294.152 210.628C294.29 211.108 293.892 211.588 293.356 211.696C293.218 211.696 293.218 211.696 293.218 211.696Z" fill="#2F638E"/>
<path d="M199.301 204.325C198.765 204.325 198.367 203.969 198.229 203.489L195.824 155.792C195.824 155.312 196.222 154.832 196.758 154.832C197.294 154.832 197.831 155.188 197.831 155.668L200.235 203.38C200.235 203.86 199.837 204.325 199.301 204.325Z" fill="#2F638E"/>
<path d="M243.241 122.478C243.241 122.478 230.647 129.305 229.99 130.513C229.315 131.705 233.467 150.406 235.076 153.037C235.076 153.037 241.632 141.055 248.863 140.451L254.364 140.931C254.364 140.931 260.263 141.535 267.356 155.917C267.356 155.917 288.651 130.993 288.253 130.389C287.855 129.785 274.189 121.162 274.189 121.162L243.241 122.478Z" fill="#5987CC"/>
<path d="M295.086 226.613L293.218 211.024C293.218 211.024 323.214 206.829 346.534 207.432L346.931 216.659L295.086 226.613Z" fill="#FFBE9D"/>
<path d="M235.214 235.321C235.214 235.321 314.115 215.784 346.932 216.62L347.745 246.343C347.745 246.343 347.209 256.654 330.584 262.289L285.174 270.803L238.553 263.728L235.214 235.321Z" fill="#FFBE9D"/>
<path d="M111.024 249.619L111.422 255.022C111.422 256.462 112.632 257.53 114.103 257.654L285.035 270.952C286.108 271.076 287.059 270.24 287.059 269.28V266.168C287.059 264.729 285.848 263.413 284.101 263.289L250.472 259.326L111.024 249.619Z" fill="#BAD9E7"/>
<path d="M223.693 68.8793C223.693 68.8793 214.974 83.1373 221.011 99.9186C226.772 115.988 242.566 119.936 242.566 119.936L243.915 126.53L241.372 128.45C241.372 128.45 245.247 138.513 251.683 142.6C251.683 142.6 266.283 131.918 274.725 129.054L273.514 112.985L277.008 109.749C277.008 109.749 294.013 106.87 297.629 98.1228C301.244 89.3761 293.892 84.9486 293.892 84.9486L263.878 53.1816L223.693 68.8793Z" fill="#FFBE9D"/>
<path d="M244.59 126.969C244.59 126.969 255.835 126.969 260.921 119.662C260.921 119.662 255.039 122.542 242.566 119.894L244.59 126.969Z" fill="#F4807D" fill-opacity="0.33"/>
<path d="M221.011 68.2204C221.011 68.2204 218.866 71.3475 223.952 71.4559C229.038 71.5797 234.003 67.8643 234.003 67.8643C234.003 67.8643 234.263 72.6634 242.445 70.2639C250.61 67.8643 253.689 63.4368 253.689 63.4368C253.689 63.4368 255.298 70.2639 265.211 66.7806C265.211 66.7806 271.369 87.0452 275.538 90.4046C275.538 90.4046 281.16 83.2059 285.987 83.0821C290.934 82.9737 293.875 85.0017 293.875 85.0017C293.875 85.0017 299.913 61.3933 285.848 50.9591C268.826 38.3886 244.313 46.7792 244.313 46.7792C244.313 46.7792 238.155 41.8563 228.502 44.132C219.264 46.2993 212.172 54.7984 216.721 61.5171C216.721 61.5171 211.756 63.3129 212.829 66.6723C213.642 70.0162 221.011 68.2204 221.011 68.2204Z" fill="#79154D"/>
<path d="M223.814 81.6754C223.814 81.6754 227.568 74.4923 234.263 77.7278C234.263 77.7278 235.076 75.8081 233.865 74.7245C232.533 73.6563 226.634 72.6965 223.814 79.7713C223.814 79.6474 223.416 81.0871 223.814 81.6754Z" fill="#79154D"/>
<path d="M246.995 78.5043C246.995 78.5043 252.617 73.3492 258.654 78.9843C258.654 78.9843 259.588 77.3123 258.654 75.7487C257.72 74.0768 254.762 73.2408 252.357 73.3492C249.935 73.3492 247.133 75.2688 246.199 77.1885C246.199 77.0646 246.06 78.3805 246.995 78.5043Z" fill="#79154D"/>
<path d="M233.726 90.4158C234.141 92.4592 233.865 94.255 233.069 94.3789C232.256 94.5027 231.183 92.9392 230.785 91.0195C230.388 88.976 230.647 87.1802 231.46 87.0719C232.256 86.948 233.328 88.3878 233.726 90.4158Z" fill="#79154D"/>
<path d="M255.298 89.3774C255.696 91.4054 255.437 93.2012 254.624 93.325C253.828 93.4489 252.755 91.8853 252.357 89.9657C251.96 87.9377 252.219 86.1419 253.032 86.018C253.828 85.7703 254.9 87.3339 255.298 89.3774Z" fill="#79154D"/>
<path d="M246.199 133.157C245.922 133.157 245.663 132.909 245.524 132.677L241.909 120.091C241.909 119.843 241.909 119.611 242.047 119.487C242.168 119.379 242.445 119.255 242.704 119.379C242.843 119.379 256.648 122.011 262.408 118.295C262.668 118.047 263.065 118.171 263.342 118.419C263.602 118.651 263.481 119.007 263.204 119.255C257.841 122.723 246.995 121.283 243.518 120.695L246.856 132.321C246.995 132.677 246.735 133.033 246.32 133.033C246.32 133.157 246.199 133.157 246.199 133.157Z" fill="#E26060"/>
<path d="M242.566 103.004C240.975 103.004 238.83 102.772 237.48 101.812C236.806 101.332 236.408 100.604 236.287 99.8922C236.01 97.2604 238.553 94.9847 239.625 94.1333L238.83 87.1823C238.83 86.7024 239.227 86.2225 239.764 86.2225C240.3 86.1141 240.836 86.594 240.836 87.074L241.77 94.5048C241.77 94.8609 241.632 95.0931 241.372 95.3408C240.438 95.9445 238.155 97.8487 238.293 99.7683C238.293 100.016 238.414 100.248 238.691 100.372C239.764 101.208 242.705 101.208 244.313 101.084C244.85 101.084 245.386 101.332 245.386 101.936C245.524 102.416 245.126 102.895 244.452 102.895C244.313 102.895 243.518 103.004 242.566 103.004Z" fill="#E26060"/>
<path d="M281.558 100.57C281.42 100.57 281.299 100.57 281.161 100.446C280.624 100.214 280.348 99.7341 280.624 99.2542C284.638 90.0121 290.537 89.4238 290.796 89.4238C291.332 89.4238 291.869 89.7799 291.869 90.2598C291.869 90.7397 291.471 91.2196 290.935 91.2196C290.796 91.2196 285.987 91.9317 282.493 99.9664C282.372 100.322 282.095 100.57 281.558 100.57Z" fill="#E26060"/>
<path d="M289.724 96.4586C289.602 96.4586 289.464 96.4586 289.326 96.3348C288.132 95.8549 285.849 95.2511 284.776 95.731C284.24 95.9787 283.703 95.731 283.427 95.2511C283.167 94.7712 283.427 94.2913 283.963 94.0591C286.246 93.0993 289.862 94.4152 290.26 94.6474C290.796 94.8951 291.073 95.375 290.796 95.8549C290.537 96.2109 290.139 96.4586 289.724 96.4586Z" fill="#E26060"/>
<path d="M247.133 107.767C249.278 106.931 255.298 104.408 259.848 100.693C260.125 100.46 260.661 100.584 260.661 100.94C260.661 102.504 260.523 105.739 260.125 106.699C259.589 108.139 257.184 109.207 253.828 110.291C251.285 111.127 248.206 109.455 246.995 108.495C246.735 108.247 246.735 107.891 247.133 107.767Z" fill="#E25555"/>
<path d="M288.53 91.1434C288.53 91.1434 292.82 90.0598 293.754 92.707C294.688 95.3388 289.066 102.77 284.776 102.166C280.347 101.562 283.029 93.543 288.53 91.1434Z" fill="#F4807D" fill-opacity="0.33"/>
<path d="M111.421 250.622L87.566 185.292C86.6319 182.66 89.0537 179.905 92.133 180.152L226.236 189.735C228.104 189.859 229.713 191.051 230.111 192.614L250.472 260.204L111.421 250.622Z" fill="#4D6874"/>
<path d="M226.236 189.82L223.693 189.572L245.784 259.933L250.472 260.289L230.111 192.684C229.574 191.012 228.104 189.928 226.236 189.82Z" fill="#BFD7E2" fill-opacity="0.44"/>
<path d="M171.847 222.893C165.412 222.893 160.188 218.218 160.188 212.459C160.188 210.895 160.586 209.347 161.399 208.016C156.693 209.347 153.216 213.295 153.216 217.97C153.216 223.729 158.441 228.404 164.876 228.404C169.564 228.404 173.439 226.004 175.325 222.521C174.114 222.645 173.041 222.893 171.847 222.893Z" fill="#BAD9E7"/>
<path d="M247.393 232.97C247.133 232.97 246.856 232.722 246.735 232.49C246.597 232.134 246.856 231.886 247.272 231.762L318.665 217.272C319.063 217.148 319.34 217.38 319.478 217.752C319.599 218.108 319.34 218.34 318.942 218.464L247.531 232.97C247.531 232.97 247.531 232.97 247.393 232.97Z" fill="#E26060"/>
<path d="M253.292 153.924C253.292 152.484 252.081 151.4 250.472 151.4C248.863 151.4 247.669 152.484 247.669 153.924C247.669 155.364 248.863 156.432 250.472 156.432C251.96 156.432 253.292 155.24 253.292 153.924Z" fill="#2F638E"/>
<path d="M250.887 171.494C250.887 170.055 249.676 168.986 248.067 168.986C246.458 168.986 245.248 170.055 245.248 171.494C245.248 172.934 246.458 174.018 248.067 174.018C249.676 174.018 250.887 172.934 250.887 171.494Z" fill="#2F638E"/>
<path d="M346.534 207.373C346.534 207.373 350.962 207.621 352.156 207.977C352.156 207.977 351.481 211.801 346.672 211.336L346.534 207.373Z" fill="#2F638E"/>
<path d="M150.275 425.772C149.878 425.772 149.462 425.539 149.341 425.292C149.065 424.812 149.341 424.332 149.878 424.1L191.793 406.482C192.33 406.235 192.866 406.482 193.143 406.962C193.402 407.427 193.143 407.906 192.606 408.154L150.673 425.772C150.535 425.772 150.414 425.772 150.275 425.772Z" fill="#C1610A"/>
<path d="M198.506 422.931C198.367 422.931 198.367 422.931 198.229 422.931C197.692 422.807 197.295 422.343 197.433 421.863L231.46 295.291L214.3 286.9C213.763 286.652 213.642 286.064 213.902 285.692C214.179 285.212 214.836 285.104 215.251 285.336L233.726 294.331L199.578 422.219C199.44 422.699 199.042 422.931 198.506 422.931Z" fill="#C1610A"/>
<path d="M188.852 322.566C188.593 322.566 188.178 322.442 188.057 322.21C187.78 321.854 187.78 321.25 188.316 320.894L232.117 293.926C232.533 293.679 233.19 293.803 233.605 294.159C233.865 294.515 233.726 295.118 233.328 295.475L189.527 322.442C189.25 322.566 189.129 322.566 188.852 322.566Z" fill="#C1610A"/>
<path d="M181.345 412.719C180.947 412.719 180.549 412.487 180.41 412.239L142.508 343.209C141.297 340.934 142.093 338.178 144.376 336.738L223.018 289.63C223.554 289.398 224.091 289.506 224.488 289.878C224.765 290.357 224.627 290.837 224.229 291.193L145.587 338.286C144.117 339.138 143.581 340.934 144.376 342.373L182.417 411.403C182.694 411.883 182.417 412.363 182.019 412.611C181.76 412.719 181.621 412.719 181.345 412.719Z" fill="#C1610A"/>
<path d="M245.524 499.165C245.386 499.165 245.386 499.165 245.248 499.165L206.671 489.582C206.134 489.458 205.875 488.978 205.996 488.498C206.134 488.018 206.671 487.786 207.207 487.91L245.784 497.493C246.32 497.616 246.597 498.096 246.458 498.576C246.32 498.808 245.922 499.165 245.524 499.165Z" fill="#C1610A"/>
<path d="M212.569 65.6607C212.033 65.5368 211.756 65.3046 211.895 64.9331C212.829 60.3817 220.337 60.2578 220.596 60.2578C221.011 60.2578 221.271 60.5055 221.271 60.8616C221.271 61.2176 221.011 61.4653 220.596 61.4653C220.596 61.4653 213.901 61.5892 213.106 65.1808C213.244 65.5368 212.967 65.6607 212.569 65.6607Z" fill="#993370"/>
<path d="M223.554 72.1971C223.018 72.1971 222.482 72.0733 221.945 71.9494C221.132 71.7172 220.596 71.3456 220.337 70.7574C219.005 68.3578 221.409 66.1905 222.88 65.4784C223.156 65.3545 223.693 65.3545 223.814 65.7261C223.952 65.9583 223.952 66.4382 223.554 66.562C223.416 66.6704 220.475 68.234 221.548 70.2775C221.669 70.5097 221.945 70.7574 222.343 70.8657C224.35 71.4695 228.64 69.9059 230.111 69.3176C230.526 69.1938 230.924 69.3176 231.045 69.5499C231.183 69.9059 231.045 70.2775 230.785 70.3858C230.249 70.5097 226.495 72.1971 223.554 72.1971Z" fill="#993370"/>
<path d="M239.487 71.5592C239.227 71.5592 238.95 71.5592 238.691 71.5592C236.407 71.4354 234.678 70.7232 233.865 69.5312C232.654 67.8438 233.328 65.9241 233.328 65.8158C233.467 65.4442 233.865 65.3359 234.141 65.4442C234.539 65.5681 234.678 65.9241 234.539 66.1718C234.539 66.1718 234.003 67.6116 234.937 68.8036C235.612 69.6396 236.805 70.1195 238.691 70.2433C244.313 70.5994 249.676 66.1718 249.814 66.048C250.074 65.8158 250.472 65.8158 250.748 66.048C251.008 66.2802 251.008 66.6518 250.748 66.884C250.61 67.24 245.386 71.5592 239.487 71.5592Z" fill="#993370"/>
<path d="M48.055 290.58C48.055 290.58 70.8206 316.464 182.953 314.792L178.802 404.319C178.802 404.319 88.6387 414.397 44.699 373.512L48.055 290.58Z" fill="#0B113A" fill-opacity="0.69"/>
<path d="M57.0333 310.311C57.0333 310.311 72.0316 316.782 77.3944 317.741V381.616C77.3944 381.616 59.8358 374.665 57.0333 371.677V310.311Z" fill="#BAD9E7"/>
<path d="M84.7637 331.971V383.151C84.7637 383.151 101.371 388.43 108.066 388.786V335.81C108.066 335.934 91.9947 336.414 84.7637 331.971Z" fill="#BAD9E7"/>
<path d="M116.508 348.055V390.736C116.508 390.736 127.89 393.847 139.412 391.695V349.386C139.412 349.386 124.95 352.25 116.508 348.055Z" fill="#BAD9E7"/>
<path d="M147.854 391.597V339.689C147.854 339.689 163.405 343.173 172.782 339.689L170.896 390.034C170.896 390.157 158.579 394.477 147.854 391.597Z" fill="#BFD7E2"/>
<path d="M275.4 411.758V322.711C275.4 322.711 358.591 315.281 395.162 295.14L396.234 283.034C396.234 283.034 405.074 281.47 407.496 287.709L405.472 375.207C405.472 375.083 388.069 410.318 275.4 411.758Z" fill="#EEEEEE"/>
<path d="M396.372 283.011L395.3 295.117C395.3 295.117 406.146 289.249 407.617 287.577C405.074 281.571 396.372 283.011 396.372 283.011Z" fill="#D2E5EF" fill-opacity="0.69"/>
<path d="M406.96 317.559C404.278 315.407 400.663 313.008 397.047 312.884C390.335 312.76 387.533 321.755 382.032 327.622C376.548 333.505 373.192 330.857 366.756 331.229C360.338 331.461 358.591 343.211 354.699 343.087C350.824 342.964 345.859 336.013 340.237 337.096C334.615 338.18 329.39 350.642 320.672 351.478C311.97 352.314 302.317 341.539 302.317 341.539C302.317 341.539 291.748 370.535 324.702 380.366C351.897 388.509 392.757 361.541 406.008 351.958L406.96 317.559Z" fill="#B0CCD6"/>
<path d="M399.054 333.749C396.234 334.461 395.438 330.87 388.865 333.037C382.308 335.189 380.699 354.37 375.06 356.398C369.438 358.441 370.372 354.122 364.213 352.682C358.055 351.134 352.83 358.921 348.402 359.153C343.991 359.401 341.707 352.326 338.092 351.722C334.476 351.134 329.788 360.005 325.896 362.033C322.021 364.076 315.447 363.472 308.216 347.295C300.847 331.117 289.464 338.3 289.464 338.3V395.719C365.96 401.587 405.748 364.308 405.748 364.308L406.683 321.891C405.074 326.922 401.32 333.145 399.054 333.749Z" fill="#0B113A" fill-opacity="0.69"/>
<mask id="mask2_181_118" style="mask-type:luminance" maskUnits="userSpaceOnUse" x="117" y="0" width="99" height="44">
<path d="M117.77 0.210938H215.199V43.2635H117.77V0.210938Z" fill="white"/>
</mask>
<g mask="url(#mask2_181_118)">
<path d="M199.042 22.9312V5.42229C199.042 2.79053 196.62 0.638672 193.679 0.638672H124.154C121.196 0.638672 118.791 2.79053 118.791 5.42229V38.3967C118.791 41.0285 121.196 43.1803 124.154 43.1803H193.679C196.62 43.1803 199.042 41.0285 199.042 38.3967V34.7897H211.636L199.042 22.9312Z" fill="#0B113A" fill-opacity="0.8"/>
</g>
<path d="M164.201 21.2065C164.201 19.0391 162.333 17.3672 159.911 17.3672C157.506 17.3672 155.638 19.0391 155.638 21.2065C155.638 23.3583 157.506 25.0303 159.911 25.0303C162.195 25.0303 164.201 23.3583 164.201 21.2065Z" fill="white"/>
<path d="M144.913 21.2065C144.913 19.0391 143.044 17.3672 140.622 17.3672C138.218 17.3672 136.332 19.0391 136.332 21.2065C136.332 23.3583 138.218 25.0303 140.622 25.0303C143.044 25.0303 144.913 23.3583 144.913 21.2065Z" fill="white"/>
<path d="M184.839 21.2065C184.839 19.0391 182.953 17.3672 180.549 17.3672C178.144 17.3672 176.259 19.0391 176.259 21.2065C176.259 23.3583 178.144 25.0303 180.549 25.0303C182.832 25.0303 184.839 23.3583 184.839 21.2065Z" fill="white"/>
<path d="M309.565 108.159C309.565 108.159 372.396 124.336 400.386 149.988V194.697C400.386 194.697 428.255 196.369 434.275 178.396V85.154C434.275 85.154 399.988 37.3334 309.565 35.166V108.159Z" fill="#0B113A"/>
<path d="M309.565 35.166V108.283C309.565 108.283 372.396 124.46 400.386 150.112V95.9442C400.386 95.9442 432.406 103.375 434.275 85.2624C434.275 85.154 399.849 37.3334 309.565 35.166Z" fill="#D2E5EF" fill-opacity="0.69"/>
<path d="M400.386 113.362C400.247 113.362 400.126 113.362 399.988 113.238C379.765 100.9 353.765 93.2212 353.505 93.1128C353.229 92.989 352.969 92.6329 353.09 92.3852C353.229 92.153 353.505 91.9053 353.903 92.0291C354.163 92.153 380.284 99.9399 400.663 112.278C400.922 112.402 401.061 112.758 400.784 113.13C400.784 113.238 400.524 113.362 400.386 113.362Z" fill="#AAC7D1"/>
<path d="M400.386 125.588C400.247 125.588 400.126 125.588 399.988 125.464C379.627 113.126 353.765 105.447 353.505 105.323C353.229 105.215 352.969 104.843 353.09 104.611C353.229 104.363 353.505 104.131 353.903 104.255C354.163 104.363 380.284 112.166 400.663 124.504C400.922 124.628 401.061 124.984 400.784 125.34C400.784 125.588 400.524 125.588 400.386 125.588Z" fill="#AAC7D1"/>
<path d="M421.422 96.4175C421.283 96.4175 421.024 96.2937 420.885 96.1698C397.843 71.4777 354.042 61.895 353.505 61.895C353.09 61.7712 352.969 61.539 352.969 61.1674C353.09 60.8114 353.367 60.6875 353.765 60.6875C354.163 60.8113 398.379 70.3941 421.819 95.4577C422.096 95.6899 421.958 96.046 421.681 96.2937C421.681 96.4175 421.56 96.4175 421.422 96.4175Z" fill="#AAC7D1"/>
<path d="M406.544 96.4355C406.423 96.4355 406.285 96.4355 406.146 96.3116C385.249 80.4901 353.903 73.2915 353.626 73.1831C353.228 73.0592 353.09 72.8115 353.228 72.4555C353.367 72.0994 353.626 71.9756 354.041 72.0994C354.301 72.2233 385.924 79.5303 407.08 95.4757C407.357 95.7079 407.357 96.0639 407.219 96.3116C406.959 96.4355 406.682 96.4355 406.544 96.4355Z" fill="#AAC7D1"/>
<path d="M339.96 61.4371C339.96 57.4894 336.345 54.2539 331.933 54.2539C327.505 54.2539 323.889 57.4894 323.889 61.4371C323.889 65.4002 327.505 68.6357 331.933 68.6357C336.345 68.6357 339.96 65.4002 339.96 61.4371Z" fill="white"/>
<path d="M339.96 93.1754C339.96 94.1352 339.77 95.0485 339.355 95.931C338.957 96.8134 338.369 97.5874 337.607 98.2686C336.863 98.9497 335.999 99.4606 335.012 99.8322C334.026 100.188 332.988 100.374 331.933 100.374C330.861 100.374 329.84 100.188 328.854 99.8322C327.868 99.4606 327.003 98.9497 326.242 98.2686C325.498 97.5874 324.91 96.8134 324.512 95.931C324.097 95.0485 323.889 94.1352 323.889 93.1754C323.889 92.231 324.097 91.3176 324.512 90.4352C324.91 89.5528 325.498 88.7788 326.242 88.0976C327.003 87.4164 327.868 86.9056 328.854 86.534C329.84 86.178 330.861 85.9922 331.933 85.9922C332.988 85.9922 334.026 86.178 335.012 86.534C335.999 86.9056 336.863 87.4164 337.607 88.0976C338.369 88.7788 338.957 89.5528 339.355 90.4352C339.77 91.3176 339.96 92.231 339.96 93.1754Z" fill="white"/>
<mask id="mask3_181_118" style="mask-type:luminance" maskUnits="userSpaceOnUse" x="423" y="197" width="43" height="101">
<path d="M423.342 197.936H465.102V297.014H423.342V197.936Z" fill="white"/>
</mask>
<g mask="url(#mask3_181_118)">
<path d="M465.102 247.529C465.102 250.625 464.963 253.691 464.721 256.74C464.479 259.775 464.116 262.732 463.631 265.596C463.147 268.46 462.542 271.184 461.85 273.754C461.14 276.339 460.345 278.723 459.445 280.922C458.546 283.104 457.577 285.071 456.522 286.789C455.466 288.507 454.359 289.963 453.183 291.155C452.006 292.347 450.813 293.229 449.567 293.833C448.322 294.452 447.076 294.746 445.796 294.746C444.533 294.746 443.288 294.452 442.042 293.833C440.797 293.229 439.586 292.347 438.427 291.155C437.25 289.963 436.143 288.507 435.088 286.789C434.033 285.071 433.064 283.104 432.164 280.922C431.265 278.723 430.469 276.339 429.76 273.754C429.051 271.184 428.462 268.46 427.978 265.596C427.494 262.732 427.13 259.775 426.888 256.74C426.629 253.691 426.508 250.625 426.508 247.529C426.508 244.418 426.629 241.352 426.888 238.318C427.13 235.268 427.494 232.311 427.978 229.448C428.462 226.584 429.051 223.859 429.76 221.289C430.469 218.704 431.265 216.32 432.164 214.137C433.064 211.939 434.033 209.988 435.088 208.254C436.143 206.536 437.25 205.08 438.427 203.888C439.586 202.712 440.797 201.814 442.042 201.21C443.288 200.606 444.533 200.297 445.796 200.297C447.076 200.297 448.322 200.606 449.567 201.21C450.813 201.814 452.006 202.712 453.183 203.888C454.359 205.08 455.466 206.536 456.522 208.254C457.577 209.988 458.546 211.939 459.445 214.137C460.345 216.32 461.14 218.704 461.85 221.289C462.542 223.859 463.147 226.584 463.631 229.448C464.116 232.311 464.479 235.268 464.721 238.318C464.963 241.352 465.102 244.418 465.102 247.529Z" fill="#38548B"/>
</g>
<path d="M426.507 247.602C426.507 240.651 427.182 234.057 428.255 228.174L444.862 248.438L440.71 293.147C432.545 287.512 426.507 269.291 426.507 247.602Z" fill="#5C7496"/>
<path d="M440.035 202.654L444.862 248.447L427.58 232.502C429.466 218.244 434.154 207.097 440.035 202.654Z" fill="#BAD9E7"/>
</svg>
